<svg xmlns="http://www.w3.org/2000/svg" viewBox="0 0 64 64"><defs><style>.cls-1{fill:none;}.cls-2{fill:#FBFBFD;}</style></defs><g id="Layer_2" data-name="Layer 2"><g id="Layer_1-2" data-name="Layer 1"><rect class="cls-1" width="64" height="64"/><path class="cls-2" d="M50.33,2H13.67A11.66,11.66,0,0,0,2,13.67V50.33A11.66,11.66,0,0,0,13.67,62H50.33A11.66,11.66,0,0,0,62,50.33V13.67A11.66,11.66,0,0,0,50.33,2Zm3.34,6.92H55V19.08H44.83V8.92ZM23.43,25.85a10.53,10.53,0,1,1-2,6.15A10.75,10.75,0,0,1,23.43,25.85ZM56.15,50.33a5.73,5.73,0,0,1-5.67,5.8H13.67a5.72,5.72,0,0,1-5.8-5.66v0a.24.24,0,0,1,0-.12V25.85h9A16.4,16.4,0,0,0,47.2,38.17a16.6,16.6,0,0,0,0-12.32h8.95Z"/></g></g></svg>
