<svg xmlns="http://www.w3.org/2000/svg" viewBox="0 0 64 64"><defs><style>.cls-1{fill:#FBFBFD;}.cls-2{fill:none;}</style></defs><g id="Layer_2" data-name="Layer 2"><g id="Layer_1-2" data-name="Layer 1"><path class="cls-1" d="M62,13.41a24.2,24.2,0,0,1-7.06,1.93,12.17,12.17,0,0,0,5.39-6.79,24.38,24.38,0,0,1-7.81,3.06,12.32,12.32,0,0,0-21.28,8.33,13.21,13.21,0,0,0,.32,2.8A35,35,0,0,1,6.18,10,12.33,12.33,0,0,0,10,26.37a12.24,12.24,0,0,1-5.58-1.53v.1A12.34,12.34,0,0,0,14.3,37a12.7,12.7,0,0,1-5.62.21,12.32,12.32,0,0,0,11.48,8.55A24.87,24.87,0,0,1,2,50.87,34.93,34.93,0,0,0,20.86,56.4c22.65,0,35-18.75,35-35V19.74A24.76,24.76,0,0,0,62,13.41"/><rect class="cls-2" width="64" height="64"/></g></g></svg>
